<svg width="21" height="20" viewBox="0 0 21 20" fill="none" xmlns="http://www.w3.org/2000/svg">
<path d="M6.5332 10.1875C7.33713 11.8477 8.67957 13.1867 10.3418 13.9863C10.4644 14.0444 10.6 14.0695 10.7353 14.0592C10.8706 14.049 11.0008 14.0036 11.1133 13.9277L13.5547 12.2969C13.6626 12.2237 13.7872 12.1791 13.917 12.1671C14.0468 12.1552 14.1775 12.1763 14.2969 12.2285L18.8672 14.1914C19.0234 14.2564 19.1539 14.371 19.2386 14.5174C19.3233 14.6639 19.3575 14.8341 19.3359 15.002C19.1911 16.1326 18.6392 17.1716 17.7836 17.9248C16.928 18.6779 15.8273 19.0935 14.6875 19.0937C11.1651 19.0937 7.78696 17.6945 5.29624 15.2038C2.80552 12.713 1.40625 9.33491 1.40625 5.8125C1.40651 4.67265 1.82208 3.57196 2.57522 2.71636C3.32836 1.86077 4.36744 1.30892 5.49805 1.16406C5.66586 1.14251 5.8361 1.17671 5.98256 1.26141C6.12902 1.34612 6.24358 1.47661 6.30859 1.63281L8.27148 6.21289C8.32253 6.33042 8.34388 6.4587 8.33366 6.58642C8.32345 6.71415 8.28197 6.8374 8.21289 6.94531L6.58203 9.42578C6.50942 9.53797 6.46681 9.66691 6.45826 9.80027C6.44971 9.93363 6.47552 10.067 6.5332 10.1875V10.1875Z" stroke="#C69A39" stroke-width="1.5" stroke-linecap="round" stroke-linejoin="round"/>
</svg>
