<svg width="25" height="26" viewBox="0 0 25 26" fill="none" xmlns="http://www.w3.org/2000/svg">
<path d="M12.5 16.9062C14.6574 16.9062 16.4062 15.1574 16.4062 13C16.4062 10.8426 14.6574 9.09375 12.5 9.09375C10.3426 9.09375 8.59375 10.8426 8.59375 13C8.59375 15.1574 10.3426 16.9062 12.5 16.9062Z" stroke="white" stroke-width="1.5" stroke-miterlimit="10"/>
<path d="M16.7969 4.01562H8.20312C5.61429 4.01562 3.51562 6.11429 3.51562 8.70312V17.2969C3.51562 19.8857 5.61429 21.9844 8.20312 21.9844H16.7969C19.3857 21.9844 21.4844 19.8857 21.4844 17.2969V8.70312C21.4844 6.11429 19.3857 4.01562 16.7969 4.01562Z" stroke="white" stroke-width="1.5" stroke-linecap="round" stroke-linejoin="round"/>
<path d="M17.5781 9.09375C18.2253 9.09375 18.75 8.56908 18.75 7.92188C18.75 7.27467 18.2253 6.75 17.5781 6.75C16.9309 6.75 16.4062 7.27467 16.4062 7.92188C16.4062 8.56908 16.9309 9.09375 17.5781 9.09375Z" fill="white"/>
</svg>
