<svg width="25" height="26" viewBox="0 0 25 26" fill="none" xmlns="http://www.w3.org/2000/svg">
<path d="M12.5 9.09374C12.5 6.9453 14.3067 5.15819 16.4551 5.18749C17.2075 5.19618 17.9414 5.42198 18.5685 5.83776C19.1956 6.25354 19.6893 6.84159 19.9903 7.53124H23.4375L20.2832 10.6855C20.0797 13.8541 18.6771 16.8261 16.3606 18.9975C14.0441 21.1689 10.9876 22.3766 7.81254 22.375C4.68754 22.375 3.90629 21.2031 3.90629 21.2031C3.90629 21.2031 7.03129 20.0312 8.59379 17.6875C8.59379 17.6875 2.34379 14.5625 3.90629 5.96874C3.90629 5.96874 7.81254 9.87499 12.5 10.6562V9.09374Z" stroke="white" stroke-width="1.5" stroke-linecap="round" stroke-linejoin="round"/>
</svg>
