<svg width="25" height="26" viewBox="0 0 25 26" fill="none" xmlns="http://www.w3.org/2000/svg">
<path d="M15.625 13L10.9375 9.875V16.125L15.625 13Z" stroke="white" stroke-width="1.5" stroke-linecap="round" stroke-linejoin="round"/>
<path d="M2.34375 13C2.34375 15.9102 2.64648 17.6094 2.87109 18.4883C2.93303 18.7268 3.05014 18.9473 3.21299 19.1322C3.37583 19.3171 3.57985 19.4612 3.80859 19.5527C7.08008 20.8027 12.5 20.7734 12.5 20.7734C12.5 20.7734 17.9199 20.8027 21.1914 19.5527C21.4201 19.4612 21.6242 19.3171 21.787 19.1322C21.9499 18.9473 22.067 18.7268 22.1289 18.4883C22.3535 17.6094 22.6562 15.9102 22.6562 13C22.6562 10.0898 22.3535 8.39062 22.1289 7.51172C22.067 7.27324 21.9499 7.05266 21.787 6.86776C21.6242 6.68286 21.4201 6.53883 21.1914 6.44726C17.9199 5.19726 12.5 5.22656 12.5 5.22656C12.5 5.22656 7.08008 5.19726 3.80859 6.44726C3.57985 6.53883 3.37583 6.68286 3.21299 6.86776C3.05014 7.05266 2.93303 7.27324 2.87109 7.51172C2.64648 8.39062 2.34375 10.0898 2.34375 13Z" stroke="white" stroke-width="1.5" stroke-linecap="round" stroke-linejoin="round"/>
</svg>
